<?xml version="1.0" standalone="no"?>
<!DOCTYPE svg PUBLIC "-//W3C//DTD SVG 20010904//EN"
 "http://www.w3.org/TR/2001/REC-SVG-20010904/DTD/svg10.dtd">
<svg version="1.0" xmlns="http://www.w3.org/2000/svg"
 width="1264.000000pt" height="1264.000000pt" viewBox="0 0 1264.000000 1264.000000"
 preserveAspectRatio="xMidYMid meet">
<metadata>
Created by potrace 1.14, written by Peter Selinger 2001-2017
</metadata>
<g transform="translate(0.000000,1264.000000) scale(0.100000,-0.100000)"
fill="#000000" stroke="none">
<path d="M5905 11065 c-67 -40 -446 -259 -530 -305 -22 -12 -44 -26 -50 -30
-5 -4 -37 -22 -70 -40 -33 -18 -72 -40 -87 -49 -16 -9 -214 -122 -440 -253
-227 -130 -501 -287 -608 -348 -107 -62 -213 -123 -235 -135 -162 -92 -291
-168 -298 -174 -7 -7 78 -65 123 -85 8 -3 33 -17 55 -31 22 -14 49 -30 60 -35
11 -6 36 -20 55 -31 39 -23 435 -251 490 -282 19 -10 107 -61 195 -112 88 -51
180 -103 205 -117 25 -14 162 -93 305 -175 143 -82 280 -161 305 -175 25 -14
100 -57 167 -96 67 -39 147 -85 178 -102 30 -17 77 -44 103 -60 26 -16 73 -42
105 -59 l57 -31 0 47 c1 73 1 2503 1 2621 -1 56 -4 102 -8 101 -5 -1 -39 -20
-78 -44z"/>
<path d="M2871 9336 c-113 -179 -218 -434 -267 -648 -12 -52 -15 -66 -19 -93
-3 -16 -8 -37 -10 -45 -4 -14 -10 -65 -21 -160 -5 -48 -5 -335 0 -390 33 -358
150 -699 340 -990 223 -340 595 -672 1051 -935 132 -77 396 -208 570 -285 77
-34 159 -70 183 -81 23 -10 61 -28 85 -38 23 -11 107 -49 187 -84 251 -112
1184 -528 1215 -542 17 -8 134 -59 260 -115 127 -56 244 -107 260 -115 17 -7
66 -29 110 -48 851 -365 1284 -555 1433 -629 187 -92 401 -216 503 -291 32
-23 67 -49 79 -57 12 -8 28 -19 34 -25 6 -5 41 -34 76 -64 120 -101 252 -243
335 -360 22 -31 43 -57 47 -59 5 -2 8 -8 8 -13 0 -5 19 -39 43 -76 40 -65 108
-196 122 -238 5 -17 11 -12 37 30 51 80 146 278 194 401 41 107 96 294 109
374 3 19 10 53 15 75 18 84 25 187 24 375 0 211 -3 243 -38 420 -43 215 -160
491 -294 690 -218 327 -591 642 -1167 987 -116 70 -373 202 -605 311 -47 22
-130 61 -185 87 -92 43 -276 129 -400 185 -27 12 -81 37 -120 55 -119 56 -479
218 -720 324 -126 56 -243 108 -260 116 -108 48 -701 305 -905 392 -135 58
-263 113 -285 123 -22 10 -128 55 -235 100 -415 174 -640 283 -828 401 -393
245 -679 545 -863 902 -27 53 -52 97 -54 97 -2 0 -21 -29 -44 -64z"/>
<path d="M6177 3992 c-3 -6 -2 -2715 2 -2751 1 -10 5 -10 14 -3 13 11 129 78
267 155 19 10 40 23 45 27 6 4 35 21 65 37 30 17 258 146 505 288 248 142 464
266 480 275 17 10 122 70 235 135 113 65 223 128 245 140 141 80 549 316 552
319 4 4 -63 45 -177 108 -25 14 -146 84 -270 155 -446 258 -916 527 -970 556
-30 16 -59 33 -65 37 -8 7 -97 58 -245 142 -52 30 -143 82 -162 93 -9 6 -52
30 -95 54 -43 24 -142 81 -221 127 -177 104 -200 116 -205 106z"/>
</g>
</svg>
